<?xml version="1.0" encoding="UTF-8"?>
<svg viewBox="0 0 500 500" xmlns="http://www.w3.org/2000/svg">
    <path id="NO-IMG" fill="#e63f3f" fill-rule="evenodd" stroke="none" d="M 362.359283 384.656952 C 355.844238 388.662109 347.833984 390.664673 338.328339 390.664673 C 322.681488 390.664673 309.865112 385.244415 299.878876 374.403748 C 289.465393 363.509644 284.258759 348.610657 284.258759 329.706238 C 284.258759 310.588196 289.518799 295.261932 300.039063 283.727051 C 310.559357 272.192139 324.470428 266.424774 341.772797 266.424774 C 356.778839 266.424774 368.834198 270.229645 377.939331 277.839478 C 387.044373 285.44928 392.264435 294.941406 393.599487 306.316101 L 369.328247 306.316101 C 367.459167 298.25238 362.893311 292.618469 355.630615 289.414368 C 351.572052 287.652069 347.059601 286.770966 342.093201 286.770966 C 332.587555 286.770966 324.777588 290.362213 318.663025 297.54483 C 312.548492 304.727448 309.491241 315.527893 309.491241 329.946533 C 309.491241 344.471985 312.802155 354.75177 319.424011 360.786224 C 326.045868 366.820679 333.575562 369.837891 342.013092 369.837891 C 350.290405 369.837891 357.072479 367.448181 362.359283 362.66864 C 367.646088 357.88913 370.903595 351.627808 372.131866 343.88446 L 344.816711 343.88446 L 344.816711 324.179108 L 394 324.179108 L 394 387.540649 L 377.658966 387.540649 L 375.175781 372.801697 C 370.423004 378.408936 366.150818 382.360626 362.359283 384.656952 Z M 175.879272 387.540649 L 152.889679 387.540649 L 152.889679 269.468689 L 188.775864 269.468689 L 210.2435 362.308167 L 231.550919 269.468689 L 267.036591 269.468689 L 267.036591 387.540649 L 244.047012 387.540649 L 244.047012 307.677856 C 244.047012 305.381531 244.0737 302.164124 244.127106 298.025452 C 244.180511 293.886749 244.207214 290.696014 244.207214 288.453125 L 221.858444 387.540649 L 197.907623 387.540649 L 175.71907 288.453125 C 175.71907 290.696014 175.745773 293.886749 175.799164 298.025452 C 175.85257 302.164124 175.879272 305.381531 175.879272 307.677856 Z M 105.789063 269.468689 L 130.300613 269.468689 L 130.300613 387.540649 L 105.789063 387.540649 Z M 310.292267 234.064911 C 293.417145 234.064911 280.520691 229.472382 271.602478 220.28717 C 259.64035 209.019257 253.659378 192.785248 253.659378 171.584473 C 253.659378 149.956512 259.64035 133.722504 271.602478 122.881805 C 280.520691 113.696655 293.417145 109.104065 310.292267 109.104065 C 327.167389 109.104065 340.063843 113.696655 348.982056 122.881805 C 360.890778 133.722504 366.845062 149.956512 366.845062 171.584473 C 366.845062 192.785248 360.890778 209.019257 348.982056 220.28717 C 340.063843 229.472382 327.167389 234.064911 310.292267 234.064911 Z M 333.602264 202.344086 C 339.316284 195.134796 342.173309 184.881683 342.173309 171.584473 C 342.173309 158.340698 339.302948 148.100922 333.562225 140.86496 C 327.821503 133.628967 320.064911 130.010986 310.292267 130.010986 C 300.519623 130.010986 292.722992 133.615631 286.902161 140.82489 C 281.081329 148.03418 278.170929 158.287292 278.170929 171.584473 C 278.170929 184.881683 281.081329 195.134796 286.902161 202.344086 C 292.722992 209.553345 300.519623 213.15799 310.292267 213.15799 C 320.064911 213.15799 327.834839 209.553345 333.602264 202.344086 Z M 235.075455 230.78067 L 210.403702 230.78067 L 162.181641 146.91272 L 162.181641 230.78067 L 139.192047 230.78067 L 139.192047 112.70871 L 165.065353 112.70871 L 212.085876 195.134796 L 212.085876 112.70871 L 235.075455 112.70871 Z"/>
</svg>
