<?xml version="1.0" encoding="UTF-8"?>
<svg viewBox="0 0 500 500" xmlns="http://www.w3.org/2000/svg">
    <path fill="#ffffff" fill-rule="evenodd" stroke="none" d="M 252.011536 380.328125 L 140.292831 380.328125 L 140.292831 121 L 252.011536 121 C 268.080353 121.234528 281.451263 123.111206 292.124695 126.629913 C 310.304718 132.611694 325.024475 143.578278 336.284363 159.529755 C 345.315796 172.431732 351.473389 186.389069 354.757538 201.402283 C 358.041718 216.415466 359.683716 230.72467 359.683716 244.330399 C 359.683716 278.813843 352.763672 308.018738 338.923401 331.946014 C 320.156891 364.200897 291.186554 380.328125 252.011536 380.328125 Z M 292.300629 187.15155 C 283.973022 173.076691 267.493927 166.039337 242.862915 166.039337 L 192.897385 166.039337 L 192.897385 335.288757 L 242.862915 335.288757 C 268.432281 335.288757 286.260132 322.680237 296.347137 297.462769 C 301.859802 283.622467 304.616089 267.143402 304.616089 248.02504 C 304.616089 221.634674 300.510986 201.343658 292.300629 187.15155 Z"/>
</svg>
