<?xml version="1.0" encoding="UTF-8"?>
<svg viewBox="0 0 500 500" xmlns="http://www.w3.org/2000/svg">
    <path fill="#ffffff" fill-rule="evenodd" stroke="none" d="M 445.164978 354.993713 C 426.653503 371.934509 402.981628 380.404755 374.148621 380.404755 C 338.472015 380.404755 310.424744 368.961487 290.006042 346.074585 C 269.587341 323.0755 259.378143 291.550385 259.378143 251.498322 C 259.378143 208.192749 270.989685 174.816498 294.213165 151.368652 C 314.407501 130.949951 340.098755 120.740753 371.287781 120.740753 C 413.022705 120.740753 443.538116 134.427795 462.8349 161.802338 C 473.493042 177.172424 479.214661 192.59845 480 208.08075 L 428.168182 208.08075 C 424.802429 196.188538 420.483185 187.213409 415.210205 181.155121 C 405.786194 170.384796 391.818665 164.999756 373.30719 164.999756 C 354.459167 164.999756 339.594147 172.600555 328.711639 187.802399 C 317.829132 203.004211 312.38797 224.516479 312.38797 252.339752 C 312.38797 280.163025 318.137634 301.002136 329.637207 314.857697 C 341.136749 328.713257 355.749359 335.64093 373.475494 335.64093 C 391.650391 335.64093 405.505737 329.694885 415.041931 317.802673 C 420.31488 311.407806 424.690247 301.815674 428.168182 289.025909 L 479.495148 289.025909 C 475.007507 316.063843 463.56424 338.052917 445.164978 354.993713 Z M 206.27121 354.993713 C 187.759735 371.934509 164.087875 380.404755 135.254868 380.404755 C 99.578224 380.404755 71.530975 368.961487 51.112274 346.074585 C 30.693571 323.0755 20.484375 291.550385 20.484375 251.498322 C 20.484375 208.192749 32.095936 174.816498 55.319405 151.368652 C 75.513725 130.949951 101.205002 120.740753 132.394012 120.740753 C 174.128952 120.740753 204.644348 134.427795 223.941147 161.802338 C 234.599258 177.172424 240.320908 192.59845 241.106232 208.08075 L 189.274399 208.08075 C 185.908676 196.188538 181.589417 187.213409 176.316437 181.155121 C 166.892426 170.384796 152.924896 164.999756 134.413437 164.999756 C 115.565407 164.999756 100.700363 172.600555 89.817863 187.802399 C 78.935364 203.004211 73.494202 224.516479 73.494202 252.339752 C 73.494202 280.163025 79.243889 301.002136 90.743431 314.857697 C 102.242981 328.713257 116.855591 335.64093 134.581726 335.64093 C 152.756607 335.64093 166.611954 329.694885 176.148163 317.802673 C 181.421127 311.407806 185.796494 301.815674 189.274399 289.025909 L 240.601379 289.025909 C 236.113754 316.063843 224.670486 338.052917 206.27121 354.993713 Z"/>
</svg>
