<!-- https://app.haikei.app -->
<!-- Blob Scene -->
<!-- 001220 -> 9012c6 -->
<!-- Color Steps: 2 below max -->
<!-- Complexity: 1 above min -->
<!-- Contrast: 3 above min -->
<!-- Gap: 6 above min -->
<svg id="visual" viewBox="0 0 960 540" width="960" height="540" xmlns="http://www.w3.org/2000/svg" xmlns:xlink="http://www.w3.org/1999/xlink" version="1.1"><rect x="0" y="0" width="960" height="540" fill="#001220"></rect><defs><linearGradient id="grad1_0" x1="43.8%" y1="0%" x2="100%" y2="100%"><stop offset="14.444444444444446%" stop-color="#9012c6" stop-opacity="1"></stop><stop offset="85.55555555555554%" stop-color="#9012c6" stop-opacity="1"></stop></linearGradient></defs><defs><linearGradient id="grad1_1" x1="43.8%" y1="0%" x2="100%" y2="100%"><stop offset="14.444444444444446%" stop-color="#9012c6" stop-opacity="1"></stop><stop offset="85.55555555555554%" stop-color="#522fb1" stop-opacity="1"></stop></linearGradient></defs><defs><linearGradient id="grad1_2" x1="43.8%" y1="0%" x2="100%" y2="100%"><stop offset="14.444444444444446%" stop-color="#0d3292" stop-opacity="1"></stop><stop offset="85.55555555555554%" stop-color="#522fb1" stop-opacity="1"></stop></linearGradient></defs><defs><linearGradient id="grad1_3" x1="43.8%" y1="0%" x2="100%" y2="100%"><stop offset="14.444444444444446%" stop-color="#0d3292" stop-opacity="1"></stop><stop offset="85.55555555555554%" stop-color="#002c6d" stop-opacity="1"></stop></linearGradient></defs><defs><linearGradient id="grad1_4" x1="43.8%" y1="0%" x2="100%" y2="100%"><stop offset="14.444444444444446%" stop-color="#002046" stop-opacity="1"></stop><stop offset="85.55555555555554%" stop-color="#002c6d" stop-opacity="1"></stop></linearGradient></defs><defs><linearGradient id="grad1_5" x1="43.8%" y1="0%" x2="100%" y2="100%"><stop offset="14.444444444444446%" stop-color="#002046" stop-opacity="1"></stop><stop offset="85.55555555555554%" stop-color="#001220" stop-opacity="1"></stop></linearGradient></defs><defs><linearGradient id="grad2_0" x1="0%" y1="0%" x2="56.3%" y2="100%"><stop offset="14.444444444444446%" stop-color="#9012c6" stop-opacity="1"></stop><stop offset="85.55555555555554%" stop-color="#9012c6" stop-opacity="1"></stop></linearGradient></defs><defs><linearGradient id="grad2_1" x1="0%" y1="0%" x2="56.3%" y2="100%"><stop offset="14.444444444444446%" stop-color="#522fb1" stop-opacity="1"></stop><stop offset="85.55555555555554%" stop-color="#9012c6" stop-opacity="1"></stop></linearGradient></defs><defs><linearGradient id="grad2_2" x1="0%" y1="0%" x2="56.3%" y2="100%"><stop offset="14.444444444444446%" stop-color="#522fb1" stop-opacity="1"></stop><stop offset="85.55555555555554%" stop-color="#0d3292" stop-opacity="1"></stop></linearGradient></defs><defs><linearGradient id="grad2_3" x1="0%" y1="0%" x2="56.3%" y2="100%"><stop offset="14.444444444444446%" stop-color="#002c6d" stop-opacity="1"></stop><stop offset="85.55555555555554%" stop-color="#0d3292" stop-opacity="1"></stop></linearGradient></defs><defs><linearGradient id="grad2_4" x1="0%" y1="0%" x2="56.3%" y2="100%"><stop offset="14.444444444444446%" stop-color="#002c6d" stop-opacity="1"></stop><stop offset="85.55555555555554%" stop-color="#002046" stop-opacity="1"></stop></linearGradient></defs><defs><linearGradient id="grad2_5" x1="0%" y1="0%" x2="56.3%" y2="100%"><stop offset="14.444444444444446%" stop-color="#001220" stop-opacity="1"></stop><stop offset="85.55555555555554%" stop-color="#002046" stop-opacity="1"></stop></linearGradient></defs><g transform="translate(960, 0)"><path d="M0 378C-51.5 374.7 -103 371.3 -144.7 349.2C-186.3 327.1 -218.1 286.2 -248.9 248.9C-279.7 211.6 -309.4 177.9 -330.7 137C-352.1 96.1 -365 48.1 -378 0L0 0Z" fill="#001a32"></path><path d="M0 315C-42.9 312.2 -85.8 309.5 -120.5 291C-155.3 272.6 -181.8 238.5 -207.4 207.4C-233.1 176.3 -257.8 148.2 -275.6 114.2C-293.4 80.1 -304.2 40 -315 0L0 0Z" fill="#00265a"></path><path d="M0 252C-34.3 249.8 -68.7 247.6 -96.4 232.8C-124.2 218.1 -145.4 190.8 -165.9 165.9C-186.5 141.1 -206.3 118.6 -220.5 91.3C-234.7 64.1 -243.4 32 -252 0L0 0Z" fill="#003080"></path><path d="M0 189C-25.7 187.3 -51.5 185.7 -72.3 174.6C-93.2 163.6 -109.1 143.1 -124.5 124.5C-139.8 105.8 -154.7 88.9 -165.4 68.5C-176 48.1 -182.5 24 -189 0L0 0Z" fill="#3332a2"></path><path d="M0 126C-17.2 124.9 -34.3 123.8 -48.2 116.4C-62.1 109 -72.7 95.4 -83 83C-93.2 70.5 -103.1 59.3 -110.2 45.7C-117.4 32 -121.7 16 -126 0L0 0Z" fill="#7127bd"></path><path d="M0 63C-8.6 62.4 -17.2 61.9 -24.1 58.2C-31.1 54.5 -36.4 47.7 -41.5 41.5C-46.6 35.3 -51.6 29.6 -55.1 22.8C-58.7 16 -60.8 8 -63 0L0 0Z" fill="#9012c6"></path></g><g transform="translate(0, 540)"><path d="M0 -378C50.3 -371.4 100.6 -364.7 142.4 -343.7C184.1 -322.6 217.2 -287.2 253.1 -253.1C289.1 -219.1 327.9 -186.6 349.2 -144.7C370.5 -102.7 374.3 -51.4 378 0L0 0Z" fill="#001a32"></path><path d="M0 -315C41.9 -309.5 83.9 -303.9 118.6 -286.4C153.4 -268.9 181 -239.3 211 -211C240.9 -182.6 273.3 -155.5 291 -120.5C308.8 -85.6 311.9 -42.8 315 0L0 0Z" fill="#00265a"></path><path d="M0 -252C33.5 -247.6 67.1 -243.2 94.9 -229.1C122.7 -215.1 144.8 -191.4 168.8 -168.8C192.7 -146.1 218.6 -124.4 232.8 -96.4C247 -68.5 249.5 -34.2 252 0L0 0Z" fill="#003080"></path><path d="M0 -189C25.2 -185.7 50.3 -182.4 71.2 -171.8C92 -161.3 108.6 -143.6 126.6 -126.6C144.6 -109.6 164 -93.3 174.6 -72.3C185.3 -51.4 187.1 -25.7 189 0L0 0Z" fill="#3332a2"></path><path d="M0 -126C16.8 -123.8 33.5 -121.6 47.5 -114.6C61.4 -107.5 72.4 -95.7 84.4 -84.4C96.4 -73 109.3 -62.2 116.4 -48.2C123.5 -34.2 124.8 -17.1 126 0L0 0Z" fill="#7127bd"></path><path d="M0 -63C8.4 -61.9 16.8 -60.8 23.7 -57.3C30.7 -53.8 36.2 -47.9 42.2 -42.2C48.2 -36.5 54.7 -31.1 58.2 -24.1C61.8 -17.1 62.4 -8.6 63 0L0 0Z" fill="#9012c6"></path></g></svg>