<?xml version="1.0" encoding="UTF-8"?>
<svg viewBox="0 0 1000 1000" xmlns="http://www.w3.org/2000/svg">
    <path fill="#ffffff" stroke="none" d="M 363.704468 736.663818 C 363.127472 787.547791 362.071167 880.696228 464.465149 880.696228 C 600.682129 880.696228 882 691.088745 882 382.976685 C 882 211.144897 751.705444 119.303772 411.162811 119.303772 C 295.674438 119.303772 230.774033 132.780151 180.186035 169.668274 C 149.095734 192.338806 118 243.733643 118 297.06073 C 118 462.967285 235.565979 464.459656 316.403076 569.62146 C 350.407654 613.858398 363.782959 649.612122 363.782959 726.640137 C 363.782959 729.743042 363.744904 733.099731 363.704468 736.663818 Z M 384 455.231689 C 384 413.430725 448.58017 425.439148 468.879852 391.829346 C 481.437927 371.037354 489.751953 347.241699 489.751953 313.800964 C 489.751953 288.981873 505.058167 272 528.713196 272 C 556.542664 272 564.240417 303.209717 587.155029 326.341248 C 606.263 345.623779 635.03125 360.10791 665.077515 365.355469 C 681.14502 368.164917 743 373.715698 743 429.450195 C 743 489.364899 675.279358 472.528015 630.29071 508.872009 C 599.048828 534.110718 591.329468 566 546.802307 566 C 493.926331 566 491.542236 519.387939 470.271332 503.298553 C 444.637604 483.842773 384 502.60614 384 455.231689 Z"/>
</svg>
